# xmcd
#
# Track frame offsets:
#	150
#	18141
#	45793
#	63056
#	83047
#	100175
#	121014
#	140787
#	159420
#	179431
#	201625
#	225781
#
# Disc length: 3270 seconds
#
# Revision: 1
# Processed by: cddbd v1.5.2PL0 Copyright (c) Steve Scherf et al.
# Submitted via: audiograbber 1.83.01
#
DISCID=890cc40c
DTITLE=Rose Alexander - Riverina Girl
DYEAR=2012
DGENRE=Christian
TTITLE0=Riverina Girl
TTITLE1=Here I Am
TTITLE2=Murrumbidgee Dreaming
TTITLE3=Lord, It's So Good
TTITLE4=I've Been Set Free
TTITLE5=Grandma's Love
TTITLE6=Desert Song
TTITLE7=Across The Border
TTITLE8=The Answer To My Prayer
TTITLE9=Then The Waters Came
TTITLE10=Jesus Came And Touched Me
TTITLE11=Here's My Life
EXTD=Rose is now Rose Sophios
EXTT0=
EXTT1=
EXTT2=
EXTT3=
EXTT4=
EXTT5=
EXTT6=
EXTT7=
EXTT8=
EXTT9=
EXTT10=
EXTT11=
PLAYORDER=
